<svg width="121" height="58" viewBox="0 0 121 58" fill="none" xmlns="http://www.w3.org/2000/svg">
<g clip-path="url(#clip0_1_5)">
<path d="M0.0206299 35.5799C0.0206299 35.8767 0.0206299 36.1735 0.0206299 36.4702C0.256279 36.4411 0.490209 36.4119 0.725858 36.3828V39.0624C0.490209 39.0916 0.256279 39.1207 0.0206299 39.1499C0.0206299 43.4438 0.0206299 47.7395 0.0206299 52.0334C0.256279 52.0043 0.490209 51.9751 0.725858 51.9459V54.6239C0.490209 54.653 0.256279 54.6822 0.0206299 54.7114C0.0206299 55.3238 0.0206299 55.9362 0.0206299 56.5487C39.7439 51.5171 79.4689 61.5803 119.192 56.5487V35.5799C79.4689 40.6115 39.7456 30.5466 0.0206299 35.5799ZM3.73942 54.2825C3.37132 54.3202 3.00151 54.3597 2.63341 54.4009C2.63341 53.5088 2.63341 52.615 2.63341 51.7229C3.00151 51.6818 3.37132 51.6423 3.73942 51.6046V54.2825ZM3.73942 38.721C3.37132 38.7587 3.00151 38.7982 2.63341 38.8394C2.63341 37.9456 2.63341 37.0535 2.63341 36.1597C3.00151 36.1186 3.37132 36.0791 3.73942 36.0414V38.721ZM6.75298 53.9977C6.38489 54.0286 6.01507 54.0629 5.64698 54.0972V51.4193C6.01507 51.385 6.38489 51.3524 6.75298 51.3198C6.75298 52.2119 6.75298 53.1039 6.75298 53.9977ZM6.75298 38.4345C6.38489 38.4654 6.01507 38.4997 5.64698 38.534V35.8561C6.01507 35.8218 6.38489 35.7892 6.75298 35.7566C6.75298 36.6487 6.75298 37.5424 6.75298 38.4345ZM9.76654 53.7627C9.39845 53.7884 9.02863 53.8159 8.66054 53.8433V51.1654C9.02863 51.1379 9.39845 51.1105 9.76654 51.0848V53.7627ZM9.76654 38.2012C9.39845 38.2269 9.02863 38.2544 8.66054 38.2818V35.6039C9.02863 35.5765 9.39845 35.549 9.76654 35.5233V38.2012ZM12.7818 53.5757C12.4137 53.5963 12.0439 53.6169 11.6758 53.6392V50.9612C12.0439 50.9389 12.4137 50.9184 12.7818 50.8978V53.5757ZM12.7818 38.0142C12.4137 38.0348 12.0439 38.0554 11.6758 38.0777V35.3998C12.0439 35.3775 12.4137 35.3569 12.7818 35.3363V38.0142ZM15.7954 53.4367C15.4273 53.4505 15.0575 53.4659 14.6894 53.4831V50.8051C15.0575 50.788 15.4273 50.7725 15.7954 50.7588V53.4367ZM15.7954 37.8735C15.4273 37.8873 15.0575 37.9044 14.6894 37.9199V35.2419C15.0575 35.2248 15.4273 35.2093 15.7954 35.1956V37.8735ZM18.8089 53.3372C18.4408 53.3475 18.071 53.3578 17.7029 53.3681V50.6902C18.071 50.6782 18.4408 50.6679 18.8089 50.6593V53.3372ZM18.8089 37.7758C18.4408 37.786 18.071 37.7963 17.7029 37.8066V35.1287C18.071 35.1167 18.4408 35.1064 18.8089 35.0978V37.7758ZM21.8225 53.2806C21.4544 53.2858 21.0846 53.2909 20.7165 53.2978V50.6199C21.0846 50.613 21.4544 50.6078 21.8225 50.6027V53.2806ZM21.8225 37.7174C21.4544 37.7226 21.0846 37.7277 20.7165 37.7346V35.0567C21.0846 35.0498 21.4544 35.0446 21.8225 35.0395V37.7174ZM24.8361 53.2583C24.468 53.2583 24.0982 53.26 23.7301 53.2618V50.5838C24.0982 50.5821 24.468 50.5804 24.8361 50.5804V53.2583ZM24.8361 37.6968C24.468 37.6968 24.0982 37.6986 23.7301 37.7003V35.0223C24.0982 35.0206 24.468 35.0189 24.8361 35.0189V37.6968ZM27.8496 53.2703C27.4815 53.2669 27.1117 53.2635 26.7436 53.2618V50.5838C27.1117 50.5855 27.4815 50.589 27.8496 50.5924V53.2703ZM27.8496 37.7088C27.4815 37.7054 27.1117 37.702 26.7436 37.7003V35.0223C27.1117 35.0241 27.4815 35.0275 27.8496 35.0309V37.7088ZM30.8632 53.3132C30.4951 53.3064 30.1253 53.2995 29.7572 53.2943C29.7572 52.4023 29.7572 51.5085 29.7572 50.6164C30.1253 50.6216 30.4951 50.6284 30.8632 50.6353V53.3132ZM30.8632 37.7517C30.4951 37.7449 30.1253 37.738 29.7572 37.7329C29.7572 36.8408 29.7572 35.947 29.7572 35.0549C30.1253 35.0601 30.4951 35.0669 30.8632 35.0738V37.7517ZM33.8768 53.3853C33.5087 53.375 33.1388 53.3647 32.7707 53.3561V50.6765C33.1388 50.685 33.5087 50.6953 33.8768 50.7056V53.3853ZM33.8768 37.8238C33.5087 37.8135 33.1388 37.8032 32.7707 37.7946V35.1167C33.1388 35.1253 33.5087 35.1356 33.8768 35.1459V37.8238ZM36.892 53.4813C36.5239 53.4676 36.1541 53.4556 35.786 53.4436C35.786 52.5515 35.786 51.6577 35.786 50.7657C36.1541 50.7777 36.5239 50.7897 36.892 50.8034V53.4813ZM36.892 37.9199C36.5239 37.9061 36.1541 37.8941 35.786 37.8821C35.786 36.9883 35.786 36.0963 35.786 35.2042C36.1541 35.2162 36.5239 35.2282 36.892 35.2419V37.9199ZM39.9056 53.5997C39.5375 53.5843 39.1677 53.5688 38.7996 53.5534V50.8755C39.1677 50.8909 39.5375 50.9063 39.9056 50.9218C39.9056 51.8139 39.9056 52.7059 39.9056 53.5997ZM39.9056 38.0382C39.5375 38.0228 39.1677 38.0074 38.7996 37.9919V35.314C39.1677 35.3294 39.5375 35.3431 39.9056 35.3603C39.9056 36.2524 39.9056 37.1444 39.9056 38.0382ZM42.9192 53.7369C42.5511 53.7198 42.1812 53.7009 41.8132 53.6838V51.0058C42.1812 51.023 42.5511 51.0402 42.9192 51.059V53.7369ZM42.9192 38.1755C42.5511 38.1583 42.1812 38.1394 41.8132 38.1223V35.4444C42.1812 35.4615 42.5511 35.4787 42.9192 35.4975V38.1755ZM45.9327 53.8896C45.5646 53.869 45.1948 53.8502 44.8267 53.8313C44.8267 52.9392 44.8267 52.0454 44.8267 51.1534C45.1948 51.1722 45.5646 51.1911 45.9327 51.2117V53.8896ZM45.9327 38.3282C45.5646 38.3093 45.1948 38.2887 44.8267 38.2698C44.8267 37.3778 44.8267 36.484 44.8267 35.5919C45.1948 35.6108 45.5646 35.6296 45.9327 35.6502V38.3282ZM48.9463 54.0578C48.5782 54.0372 48.2084 54.0166 47.8403 53.9943V51.3164C48.2084 51.3369 48.5782 51.3575 48.9463 51.3781V54.0578ZM48.9463 38.4946C48.5782 38.474 48.2084 38.4534 47.8403 38.4328V35.7549C48.2084 35.7755 48.5782 35.796 48.9463 35.8183V38.4946ZM51.9598 54.2345C51.5917 54.2122 51.2219 54.1898 50.8538 54.1675C50.8538 53.2755 50.8538 52.3817 50.8538 51.4896C51.2219 51.5119 51.5917 51.5342 51.9598 51.5565V54.2345ZM51.9598 38.673C51.5917 38.6507 51.2219 38.6284 50.8538 38.6078C50.8538 37.714 50.8538 36.8219 50.8538 35.9281C51.2219 35.9504 51.5917 35.9727 51.9598 35.995V38.673ZM54.9734 54.4197C54.6053 54.3974 54.2355 54.3734 53.8674 54.3511V51.6715C54.2355 51.6938 54.6053 51.7178 54.9734 51.7401C54.9734 52.6339 54.9734 53.5259 54.9734 54.4197ZM54.9734 38.8565C54.6053 38.8342 54.2355 38.8102 53.8674 38.7879V36.11C54.2355 36.1323 54.6053 36.1546 54.9734 36.1786C54.9734 37.0707 54.9734 37.9645 54.9734 38.8565ZM57.987 54.6084C57.6189 54.5844 57.2491 54.5621 56.881 54.5381V51.8602C57.2491 51.8842 57.6189 51.9065 57.987 51.9305V54.6084ZM57.987 39.047C57.6189 39.0229 57.2491 39.0006 56.881 38.9766V36.2987C57.2491 36.321 57.6189 36.345 57.987 36.369V39.047ZM61.0022 54.7989C60.6341 54.7748 60.2643 54.7525 59.8962 54.7285V52.0506C60.2643 52.0746 60.6341 52.0969 61.0022 52.1209C61.0022 53.013 61.0022 53.9068 61.0022 54.7989ZM61.0022 39.2374C60.6341 39.2134 60.2643 39.1911 59.8962 39.167V36.4891C60.2643 36.5131 60.6341 36.5354 61.0022 36.5595C61.0022 37.4515 61.0022 38.3436 61.0022 39.2374ZM64.0158 54.9893C63.6477 54.967 63.2779 54.943 62.9098 54.9207C62.9098 54.0269 62.9098 53.1348 62.9098 52.241C63.2779 52.265 63.6477 52.2873 64.0158 52.3096V54.9893ZM64.0158 39.4261C63.6477 39.4038 63.2779 39.3798 62.9098 39.3575C62.9098 38.4654 62.9098 37.5716 62.9098 36.6795C63.2779 36.7018 63.6477 36.7259 64.0158 36.7482V39.4261ZM67.0294 55.1728C66.6613 55.1505 66.2915 55.1282 65.9234 55.1059V52.428C66.2915 52.4503 66.6613 52.4726 67.0294 52.4949V55.1728ZM67.0294 39.6114C66.6613 39.5891 66.2915 39.5668 65.9234 39.5445V36.8665C66.2915 36.8888 66.6613 36.9111 67.0294 36.9334V39.6114ZM70.0429 55.3513C69.6748 55.3307 69.305 55.3084 68.9369 55.2861C68.9369 54.394 68.9369 53.5002 68.9369 52.6081C69.305 52.6304 69.6748 52.651 70.0429 52.6733V55.3513ZM70.0429 39.7898C69.6748 39.7692 69.305 39.7469 68.9369 39.7246C68.9369 38.8325 68.9369 37.9387 68.9369 37.0467C69.305 37.069 69.6748 37.0895 70.0429 37.1101V39.7898ZM73.0565 55.5194C72.6884 55.5005 72.3186 55.4799 71.9505 55.4593V52.7814C72.3186 52.802 72.6884 52.8226 73.0565 52.8414V55.5194ZM73.0565 39.9579C72.6884 39.9373 72.3186 39.9184 71.9505 39.8979V37.2199C72.3186 37.2405 72.6884 37.2594 73.0565 37.28V39.9579ZM76.0701 55.6738C75.702 55.6566 75.3321 55.6377 74.9641 55.6189V52.941C75.3321 52.9598 75.702 52.9787 76.0701 52.9958C76.0701 53.8879 76.0701 54.7817 76.0701 55.6738ZM76.0701 40.1123C75.702 40.0951 75.3321 40.0763 74.9641 40.0574V37.3795C75.3321 37.3983 75.702 37.4172 76.0701 37.4344C76.0701 38.3264 76.0701 39.2185 76.0701 40.1123ZM79.0836 55.8127C78.7155 55.7973 78.3457 55.7801 77.9776 55.763V53.0851C78.3457 53.1022 78.7155 53.1177 79.0836 53.1348V55.8127ZM79.0836 40.2513C78.7155 40.2358 78.3457 40.2187 77.9776 40.2032V37.5253C78.3457 37.5424 78.7155 37.5579 79.0836 37.5733V40.2513ZM82.0972 55.9328C81.7291 55.9191 81.3593 55.9054 80.9912 55.8916V53.2137C81.3593 53.2274 81.7291 53.2412 82.0972 53.2549V55.9328ZM82.0972 40.3713C81.7291 40.3576 81.3593 40.3439 80.9912 40.3302V37.6522C81.3593 37.666 81.7291 37.6797 82.0972 37.6934V40.3713ZM85.1125 56.0306C84.7444 56.0203 84.3745 56.0083 84.0065 55.998C84.0065 55.1059 84.0065 54.2121 84.0065 53.3201C84.3745 53.3321 84.7444 53.3424 85.1125 53.3527V56.0306ZM85.1125 40.4691C84.7444 40.4588 84.3745 40.4468 84.0065 40.4365C84.0065 39.5445 84.0065 38.6507 84.0065 37.7586C84.3745 37.7706 84.7444 37.7809 85.1125 37.7912V40.4691ZM88.126 56.1027C87.7579 56.0958 87.3881 56.0872 87.02 56.0786V53.4007C87.3881 53.4093 87.7579 53.4179 88.126 53.4247C88.126 54.3185 88.126 55.2106 88.126 56.1027ZM88.126 40.5412C87.7579 40.5343 87.3881 40.5257 87.02 40.5172V37.8392C87.3881 37.8478 87.7579 37.8564 88.126 37.8632C88.126 38.7553 88.126 39.6491 88.126 40.5412ZM91.1396 56.149C90.7715 56.1455 90.4017 56.1404 90.0336 56.1352V53.4573C90.4017 53.4625 90.7715 53.4659 91.1396 53.471V56.149ZM91.1396 40.5875C90.7715 40.5841 90.4017 40.5789 90.0336 40.5738V37.8958C90.4017 37.901 90.7715 37.9044 91.1396 37.9096V40.5875ZM94.1531 56.1627C93.785 56.1627 93.4152 56.1627 93.0471 56.161V53.4831C93.4152 53.4848 93.785 53.4848 94.1531 53.4848C94.1531 54.3768 94.1531 55.2706 94.1531 56.1627ZM94.1531 40.6012C93.785 40.6012 93.4152 40.6012 93.0471 40.5995V37.9216C93.4152 37.9233 93.785 37.9233 94.1531 37.9233C94.1531 38.8154 94.1531 39.7091 94.1531 40.6012ZM97.1667 56.1438C96.7986 56.149 96.4288 56.1524 96.0607 56.1541C96.0607 55.262 96.0607 54.3683 96.0607 53.4762C96.4288 53.4728 96.7986 53.4693 97.1667 53.4659C97.1667 54.3597 97.1667 55.2518 97.1667 56.1438ZM97.1667 40.5823C96.7986 40.5875 96.4288 40.5909 96.0607 40.5926C96.0607 39.7006 96.0607 38.8068 96.0607 37.9147C96.4288 37.9113 96.7986 37.9078 97.1667 37.9044C97.1667 38.7965 97.1667 39.6903 97.1667 40.5823ZM100.18 56.0889C99.8122 56.0975 99.4424 56.1061 99.0743 56.1129V53.435C99.4424 53.4282 99.8122 53.4196 100.18 53.411V56.0889ZM100.18 40.5275C99.8122 40.536 99.4424 40.5446 99.0743 40.5515V37.8735C99.4424 37.8667 99.8122 37.8581 100.18 37.8495V40.5275ZM103.194 55.9946C102.826 56.0083 102.456 56.022 102.088 56.034C102.088 55.142 102.088 54.2482 102.088 53.3561C102.456 53.3441 102.826 53.3304 103.194 53.3167V55.9946ZM103.194 40.4331C102.826 40.4468 102.456 40.4605 102.088 40.4726C102.088 39.5788 102.088 38.6867 102.088 37.7929C102.456 37.7809 102.826 37.7672 103.194 37.7535V40.4331ZM106.207 55.8573C105.839 55.8762 105.469 55.8951 105.101 55.9122V53.2343C105.469 53.2171 105.839 53.1983 106.207 53.1794V55.8573ZM106.207 40.2959C105.839 40.3147 105.469 40.3336 105.101 40.3508V37.6728C105.469 37.6557 105.839 37.6368 106.207 37.6179V40.2959ZM109.223 55.6738C108.855 55.6995 108.485 55.7235 108.117 55.7458V53.0679C108.485 53.0456 108.855 53.0216 109.223 52.9958V55.6738ZM109.223 40.1123C108.855 40.138 108.485 40.162 108.117 40.1843V37.5064C108.485 37.4841 108.855 37.4601 109.223 37.4344V40.1123ZM112.236 55.4439C111.868 55.4748 111.498 55.5057 111.13 55.5348V52.8552C111.498 52.826 111.868 52.7951 112.236 52.7643V55.4439ZM112.236 39.8824C111.868 39.9133 111.498 39.9442 111.13 39.9733V37.2954C111.498 37.2662 111.868 37.2354 112.236 37.2045V39.8824ZM115.25 55.1625C114.882 55.2003 114.512 55.2363 114.144 55.2723V52.5944C114.512 52.5584 114.882 52.5224 115.25 52.4846V55.1625ZM115.25 39.5994C114.882 39.6371 114.512 39.6731 114.144 39.7091V37.0312C114.512 36.9952 114.882 36.9592 115.25 36.9214V39.5994ZM118.263 54.8263C117.895 54.8709 117.525 54.9138 117.157 54.9567C117.157 54.0629 117.157 53.1708 117.157 52.2788C117.525 52.2376 117.895 52.193 118.263 52.1484C118.263 53.0405 118.263 53.9325 118.263 54.8263ZM118.263 39.2648C117.895 39.3094 117.525 39.3523 117.157 39.3952C117.157 38.5031 117.157 37.6093 117.157 36.7173C117.525 36.6744 117.895 36.6315 118.263 36.5869C118.263 37.479 118.263 38.371 118.263 39.2648Z" fill="white"/>
<path d="M13.3082 40.4193C13.0244 41.0421 12.7388 41.6665 12.455 42.291C11.4195 41.7334 10.1897 41.4229 9.40706 41.4812C8.66571 41.5344 8.16345 41.8398 8.16345 42.3682C8.16345 44.1454 13.377 42.8056 13.3632 46.3413C13.3632 48.2524 11.6999 49.3623 9.53263 49.5167C7.92436 49.63 6.3161 49.1548 5.21353 48.3262C5.50766 47.6983 5.80008 47.0721 6.09421 46.446C7.10045 47.2471 8.52639 47.7034 9.56015 47.6314C10.4683 47.5679 11.0136 47.2008 11.0136 46.6004C11.0136 44.739 5.80008 46.2127 5.80008 42.7782C5.80008 41.0095 7.32406 39.7451 9.58767 39.5856C10.9603 39.4895 12.3295 39.8275 13.3082 40.4193Z" fill="#1A1A1A"/>
<path d="M19.1375 41.1073V48.9987C18.4013 49.0158 17.6651 49.0381 16.9289 49.0639C16.9289 46.434 16.9289 43.8024 16.9289 41.1725C15.9364 41.2068 14.944 41.2463 13.9515 41.2943V39.4261C16.6778 39.294 19.4041 39.2185 22.1287 39.1859V41.0541C21.1328 41.0644 20.1351 41.0816 19.1375 41.1073Z" fill="#1A1A1A"/>
<path d="M27.7774 46.1492C27.7069 46.1492 27.6381 46.1475 27.5676 46.1475C26.8864 46.1423 26.207 46.1389 25.5258 46.1372C25.5258 47.067 25.5258 47.9968 25.5258 48.9249C24.7896 48.9232 24.0535 48.9266 23.3173 48.9318V39.1722C24.7346 39.1619 26.1502 39.1636 27.5676 39.1756C30.1253 39.1979 31.5788 40.464 31.5788 42.6238C31.5788 44.13 30.9354 45.2022 29.7469 45.7409C30.4418 46.8251 31.135 47.9127 31.8299 49.0004C30.9957 48.9815 30.1614 48.9661 29.3272 48.9541C28.8112 48.0191 28.2934 47.0841 27.7774 46.1492ZM27.5676 44.3067C28.7836 44.317 29.4837 43.7715 29.482 42.6564C29.482 41.5687 28.7836 41.0129 27.5676 41.0026C26.8864 40.9975 26.207 40.994 25.5258 40.9923C25.5258 42.0937 25.5258 43.1951 25.5258 44.2964C26.207 44.2981 26.8864 44.3016 27.5676 44.3067Z" fill="#1A1A1A"/>
<path d="M35.6467 41.1742V43.2929C37.2223 43.3443 38.7962 43.4044 40.3717 43.473C40.3717 44.082 40.3717 44.691 40.3717 45.2983C38.7962 45.2297 37.2223 45.1696 35.6467 45.1182V47.2797C37.4459 47.3381 39.2434 47.4101 41.0426 47.4907V49.3178C38.5072 49.2046 35.9735 49.1085 33.4381 49.0416V39.282C35.9219 39.3489 38.4057 39.4398 40.8895 39.5513V41.3783C39.1419 41.2994 37.3943 41.2308 35.6467 41.1742Z" fill="#1A1A1A"/>
<path d="M44.7063 47.5971C44.45 48.2164 44.1937 48.8357 43.9374 49.4533C43.1772 49.4155 42.4186 49.3778 41.6584 49.3435C43.074 46.1561 44.4913 42.9738 45.9069 39.7966C46.6672 39.8378 47.4257 39.879 48.186 39.9219C49.5793 43.2534 50.9725 46.5884 52.3658 49.9268C51.578 49.8787 50.7902 49.8324 50.0041 49.7861C49.7478 49.1394 49.4915 48.4926 49.2353 47.8458C47.725 47.7584 46.2165 47.676 44.7063 47.5971ZM46.9854 42.1555C46.4677 43.3906 45.9517 44.6275 45.4339 45.8644C46.4642 45.9193 47.4928 45.9742 48.5232 46.0343C48.0106 44.7408 47.498 43.4473 46.9854 42.1555Z" fill="#1A1A1A"/>
<path d="M62.0257 50.5323C62.0257 48.3382 62.0257 46.1458 62.0257 43.9516C61.1588 45.7598 60.2919 47.5696 59.4249 49.3778C58.945 49.3469 58.4651 49.3178 57.9852 49.2869C57.1183 47.3689 56.2514 45.451 55.3845 43.533V50.1138C54.7188 50.0726 54.0514 50.0314 53.3858 49.9902C53.3858 46.7376 53.3858 43.485 53.3858 40.2307C54.2097 40.2821 55.0353 40.3319 55.861 40.3833C56.8122 42.4317 57.7616 44.4817 58.7128 46.53C59.6589 44.6001 60.6049 42.6718 61.5509 40.7419C62.3714 40.7933 63.1919 40.8448 64.0106 40.8963V50.6559C63.3501 50.6147 62.6879 50.5735 62.0257 50.5323Z" fill="#1A1A1A"/>
<path d="M66.1797 50.7897V41.0301C66.9158 41.0747 67.652 41.1193 68.3882 41.1639V50.9235C67.652 50.8789 66.9141 50.8343 66.1797 50.7897Z" fill="#1A1A1A"/>
<path d="M77.4031 51.4055C75.8241 49.2457 74.2433 47.079 72.6643 44.9071V51.1671C71.9608 51.1293 71.2573 51.0899 70.5538 51.0504C70.5538 47.7978 70.5538 44.5435 70.5538 41.2908C71.2246 41.3286 71.8954 41.3663 72.5663 41.4023C74.1504 43.5793 75.7346 45.7512 77.3188 47.9162C77.3188 45.825 77.3188 43.7337 77.3188 41.6425C78.0172 41.6751 78.7172 41.706 79.4156 41.7352V51.4947C78.7447 51.4656 78.0739 51.4364 77.4031 51.4055Z" fill="#1A1A1A"/>
<path d="M90.0542 46.8817V50.6318C89.0187 51.3712 87.4397 51.8567 86.0843 51.8207C83.1206 51.7435 80.8708 49.5013 80.8708 46.6724C80.8708 43.8555 83.1636 41.8192 86.2099 41.8964C87.6633 41.9342 89.146 42.5174 90.1385 43.3958C89.7239 43.9156 89.3094 44.4337 88.8949 44.9518C88.1673 44.2707 87.161 43.8315 86.2116 43.8058C84.4777 43.7612 83.1361 45.0392 83.1361 46.753C83.1361 48.4823 84.4915 49.8547 86.2253 49.8976C86.8119 49.913 87.5119 49.7192 88.1398 49.4121V46.8508C88.7779 46.8628 89.4161 46.8731 90.0542 46.8817Z" fill="#1A1A1A"/>
<path d="M100.707 41.9839V48.6195C100.707 50.6678 99.4475 51.879 97.4213 51.9065C96.1071 51.9236 95.0458 51.3695 94.2202 50.4088C94.5608 49.8873 94.8996 49.3658 95.2402 48.8443C95.9248 49.5665 96.7074 49.9216 97.3095 49.9147C98.0353 49.9062 98.4843 49.4498 98.4843 48.6144V42.0336C99.2256 42.0199 99.967 42.0045 100.707 41.9839Z" fill="#1A1A1A"/>
<path d="M111.318 51.1877V44.6069C110.451 46.5403 109.584 48.4669 108.717 50.3865C108.237 50.4174 107.757 50.4483 107.277 50.4757C106.41 48.6624 105.543 46.844 104.677 45.0204V51.6011C104.011 51.632 103.343 51.6577 102.678 51.6817V41.9221C103.503 41.893 104.327 41.8587 105.153 41.8192C106.104 43.7629 107.054 45.6997 108.005 47.6297C108.951 45.5814 109.897 43.5279 110.843 41.4658C111.663 41.4023 112.484 41.3337 113.303 41.2582C113.303 44.5109 113.303 47.7652 113.303 51.0178C112.64 51.0779 111.978 51.1345 111.318 51.1877Z" fill="#1A1A1A"/>
<path d="M96.4855 16.2494C96.5939 14.093 97.6001 12.0652 99.2445 10.6705C99.2703 10.722 99.2961 10.7752 99.3202 10.8301C97.7446 12.1836 96.778 14.1359 96.661 16.2134C96.6025 16.2254 96.544 16.2374 96.4855 16.2494ZM101.923 9.18489C101.448 9.33757 100.999 9.53142 100.576 9.75959C100.612 9.8059 100.65 9.85051 100.689 9.89511C101.095 9.67896 101.524 9.49368 101.976 9.34786C102.752 9.09911 103.538 8.98246 104.312 8.98246C105.201 8.98246 106.073 9.13857 106.894 9.43192C106.925 9.38389 106.956 9.33414 106.985 9.28439C105.408 8.7114 103.639 8.63592 101.923 9.18489ZM106.711 24.079C107.119 23.9486 107.511 23.7857 107.886 23.5952C107.853 23.5472 107.817 23.5009 107.783 23.4546C107.423 23.6347 107.05 23.7891 106.66 23.9143C104.926 24.4684 103.091 24.3947 101.426 23.7136C101.395 23.7617 101.365 23.8114 101.336 23.8594C102.274 24.2454 103.287 24.4513 104.324 24.4513C105.113 24.453 105.918 24.3312 106.711 24.079ZM97.0136 18.9668C96.8898 18.5825 96.8003 18.1965 96.7384 17.8105C96.6799 17.8037 96.6214 17.7985 96.5629 17.7951C96.6249 18.2034 96.7195 18.6134 96.8502 19.0182C97.4092 20.7561 98.5238 22.1645 99.9377 23.1115C99.9601 23.0583 99.979 23.0034 99.9979 22.9485C98.5875 21.9964 97.5417 20.6102 97.0136 18.9668ZM112.157 16.891C112.1 16.8961 112.042 16.9013 111.983 16.9082C111.944 18.0181 111.66 19.1143 111.135 20.1299C110.621 21.1266 109.909 21.9792 109.051 22.6517C109.078 22.7032 109.109 22.7529 109.138 22.801C110.024 22.113 110.759 21.2347 111.288 20.2088C111.829 19.1623 112.121 18.0335 112.157 16.891ZM114.942 14.1805C114.873 13.8888 114.796 13.5989 114.703 13.3107C113.996 11.1097 112.635 9.23464 110.805 7.88795C110.676 7.93256 110.551 7.98231 110.428 8.03892C112.288 9.34958 113.667 11.2143 114.374 13.4154C114.486 13.7636 114.579 14.1136 114.653 14.4635C114.756 14.3726 114.852 14.2783 114.942 14.1805ZM94.2563 19.8486C94.1239 19.4334 94.0207 19.0165 93.9398 18.5997C93.8349 18.6803 93.7334 18.7678 93.6388 18.8587C93.7162 19.2241 93.8126 19.5895 93.9295 19.9532C94.6399 22.1628 95.997 23.9881 97.7223 25.2919C97.8461 25.2439 97.9682 25.1907 98.0835 25.1324C96.3393 23.8629 94.965 22.053 94.2563 19.8486ZM108.5 10.0238C108.478 10.077 108.455 10.1301 108.435 10.185C109.893 11.1114 111.051 12.5284 111.619 14.2954C111.739 14.6711 111.83 15.052 111.892 15.4328C111.951 15.4362 112.007 15.4362 112.066 15.4362C112.002 15.0348 111.909 14.6368 111.784 14.2422C111.199 12.4255 110.005 10.969 108.5 10.0238ZM101.267 7.14856C100.736 7.3184 100.23 7.53113 99.7485 7.77816C99.7554 7.8382 99.764 7.89825 99.7743 7.95829C100.263 7.70439 100.779 7.48481 101.321 7.31154C102.313 6.99417 103.319 6.8432 104.31 6.8432C105.411 6.8432 106.489 7.03191 107.508 7.38188C107.508 7.32183 107.508 7.26007 107.506 7.20003C105.552 6.53956 103.378 6.47265 101.267 7.14856ZM93.4634 15.5529C93.5683 15.6301 93.6767 15.7021 93.7885 15.7691C94.0121 13.1083 95.2471 10.6208 97.2217 8.82977C97.0996 8.78174 96.9758 8.73885 96.8502 8.70283C94.9392 10.4973 93.7283 12.9402 93.4634 15.5529ZM107.542 26.6643C105.287 27.3865 102.963 27.3076 100.88 26.5905C100.908 26.7226 100.941 26.8547 100.984 26.9851C102.052 27.3282 103.178 27.5118 104.324 27.5118C105.425 27.5118 106.545 27.3437 107.647 26.9903C107.933 26.8993 108.213 26.793 108.488 26.6798C108.517 26.5477 108.542 26.4156 108.557 26.28C108.23 26.4259 107.891 26.5528 107.542 26.6643ZM101.09 6.59788C102.153 6.25821 103.242 6.09009 104.327 6.09009C105.375 6.09009 106.419 6.24792 107.429 6.56014C107.401 6.42976 107.368 6.3011 107.327 6.17072C105.266 5.57543 103.075 5.60288 100.985 6.27022C100.566 6.40403 100.161 6.56529 99.7692 6.7437C99.7485 6.8758 99.7347 7.00789 99.7279 7.1417C100.165 6.93241 100.617 6.74885 101.09 6.59788ZM94.3509 16.0435C94.406 16.0658 94.4627 16.0864 94.5195 16.1053C94.6657 13.4394 95.9059 10.9347 97.9304 9.20033C97.8805 9.16773 97.8306 9.13514 97.779 9.10426C95.7562 10.8575 94.5126 13.369 94.3509 16.0435ZM114.016 21.6087C114.613 20.449 114.992 19.2172 115.147 17.9615C115.045 17.8637 114.937 17.7728 114.825 17.687C114.558 20.2997 113.313 22.7341 111.354 24.4856C111.49 24.5251 111.629 24.5577 111.77 24.5834C112.673 23.7394 113.433 22.7392 114.016 21.6087ZM109.866 8.35972C109.816 8.39403 109.768 8.43006 109.72 8.46608C111.524 9.65151 112.952 11.4356 113.662 13.6435C113.801 14.0741 113.905 14.5081 113.98 14.9422C114.034 14.913 114.087 14.8804 114.139 14.8495C114.061 14.4292 113.96 14.0089 113.826 13.5921C113.11 11.3653 111.677 9.56745 109.866 8.35972ZM114.274 17.3336C114.219 17.3044 114.164 17.277 114.108 17.2495C113.934 19.9326 112.651 22.4441 110.58 24.1631C110.635 24.1923 110.69 24.2214 110.747 24.2489C112.802 22.5179 114.082 20.0115 114.274 17.3336ZM94.9719 19.6204C94.8188 19.1418 94.7036 18.6597 94.6261 18.1776C94.5711 18.2034 94.5195 18.2308 94.4662 18.26C94.5453 18.7318 94.6571 19.2035 94.8085 19.6736C95.5051 21.8386 96.8777 23.6004 98.6201 24.8047C98.6683 24.7687 98.7165 24.7326 98.7646 24.6949C97.0308 23.5095 95.6616 21.7665 94.9719 19.6204ZM107.365 26.1153C107.786 25.9798 108.191 25.8168 108.581 25.6333C108.578 25.5732 108.574 25.5115 108.567 25.4497C108.167 25.6419 107.747 25.8117 107.312 25.9507C105.1 26.6575 102.817 26.5357 100.801 25.762C100.799 25.8237 100.801 25.8855 100.803 25.9472C101.916 26.3658 103.106 26.5905 104.32 26.5905C105.33 26.5923 106.355 26.4379 107.365 26.1153Z" fill="white"/>
<mask id="mask0_1_5" style="mask-type:luminance" maskUnits="userSpaceOnUse" x="0" y="0" width="120" height="34">
<path d="M0 15.052V33.8129L5.90156 33.1627C5.9308 27.8858 5.8964 20.5982 5.81211 14.3452C3.8736 14.563 1.93508 14.7981 0 15.052ZM12.3793 13.6761C12.0818 15.8291 11.8943 17.0814 11.7137 18.7798H11.5743C11.4453 17.2461 11.306 15.9801 11.0669 13.7996C10.0624 13.8957 9.01832 13.9986 8.0138 14.1033C7.58895 14.1479 7.16581 14.1959 6.74095 14.2422C7.4221 20.5107 8.21333 27.9407 8.71215 32.8694L14.28 32.3478C14.9354 27.3128 15.8401 19.7096 16.5866 13.3073C15.1985 13.4205 13.7657 13.5475 12.3793 13.6761ZM17.4965 13.2369C17.4673 16.5616 17.4518 20.1539 17.4518 23.0652L17.3693 32.1454L23.7146 31.7079V12.8012C21.6402 12.9299 19.5675 13.0757 17.4965 13.2369ZM70.2924 32.0699C70.2924 32.0699 78.9288 32.8127 78.9305 32.8127C89.9613 34.1303 87.6083 21.8506 87.5154 13.5217C85.3602 13.3347 83.2049 13.1666 81.0462 13.0174C81.0462 17.4932 81.0462 24.2952 81.0462 24.2952C81.1081 27.3317 79.7063 27.9664 76.8045 27.5976V12.748C74.6338 12.6211 72.4631 12.513 70.2924 12.4204V32.0699ZM38.2406 12.1613V23.5181C38.2406 25.3399 37.7572 26.5357 36.1868 26.5357C34.7024 26.5357 34.1021 25.4858 34.1021 23.5181V12.2934C31.9193 12.374 29.7366 12.4701 27.5538 12.5833V22.7152C27.5538 29.4143 29.8621 31.6256 36.0286 31.6256C42.1314 31.6256 44.8233 28.8173 44.8233 22.7684V12.0327C42.6302 12.0601 40.4354 12.103 38.2406 12.1613ZM58.9915 31.4215L66.2657 31.8006L66.2467 12.2625C64.279 12.1956 62.3112 12.139 60.3452 12.0927C60.4381 14.5836 60.5791 17.0591 60.7838 19.514H60.6273C60.5069 18.8501 59.7604 15.7021 58.8745 12.0601C58.6664 12.055 58.46 12.0515 58.2519 12.0464C57.0117 12.0275 55.7732 12.0155 54.5331 12.0069C54.8461 13.4788 58.3 28.2615 58.9915 31.4215ZM48.7038 11.9983V31.1435L54.6535 31.2602C54.6982 24.6915 54.6208 17.6047 54.2407 12.0069C53.0297 11.9983 51.8171 11.9932 50.6062 11.9932C49.9715 11.9949 49.3367 11.9949 48.7038 11.9983ZM100.989 27.004C100.332 24.9625 101.46 22.777 103.507 22.1233C105.554 21.468 107.745 22.5934 108.4 24.6349C109.058 26.6763 107.929 28.8619 105.882 29.5155C105.487 29.6425 105.088 29.7025 104.694 29.7025C103.048 29.7008 101.518 28.6509 100.989 27.004ZM102.728 19.8177C102.623 19.4917 102.803 19.1435 103.13 19.0388C103.457 18.9342 103.806 19.1143 103.911 19.4403C104.016 19.7662 103.835 20.1145 103.509 20.2191C103.445 20.2397 103.381 20.2483 103.319 20.2483C103.058 20.2483 102.814 20.0819 102.728 19.8177ZM106.202 18.7077C106.097 18.3818 106.278 18.0335 106.605 17.9289C106.932 17.8242 107.281 18.0044 107.386 18.3303C107.491 18.6563 107.31 19.0045 106.983 19.1092C106.919 19.1298 106.856 19.1383 106.794 19.1383C106.531 19.1383 106.287 18.9702 106.202 18.7077ZM92.6171 22.8542C91.9601 20.8127 93.0884 18.6271 95.1353 17.9735C97.1822 17.3182 99.3736 18.4436 100.031 20.485C100.686 22.5265 99.5593 24.7121 97.5124 25.3657C97.1168 25.4926 96.7178 25.5527 96.3239 25.5527C94.676 25.5527 93.1469 24.5028 92.6171 22.8542ZM108.744 21.9466C108.089 19.9052 109.216 17.7196 111.263 17.066C113.31 16.4107 115.501 17.536 116.156 19.5775C116.813 21.619 115.685 23.8045 113.638 24.4582C113.242 24.5851 112.843 24.6452 112.45 24.6452C110.803 24.6434 109.274 23.5935 108.744 21.9466ZM100.755 16.855C100.65 16.529 100.83 16.1808 101.157 16.0761C101.484 15.9715 101.833 16.1516 101.938 16.4776C102.043 16.8035 101.862 17.1518 101.536 17.2564C101.472 17.277 101.408 17.2856 101.346 17.2856C101.083 17.2856 100.839 17.1192 100.755 16.855ZM102.953 17.03C102.712 16.2786 103.127 15.474 103.88 15.2338C104.634 14.9936 105.44 15.4071 105.681 16.1585C105.922 16.9099 105.507 17.7145 104.754 17.9546C104.609 18.0009 104.462 18.0232 104.317 18.0232C103.71 18.0215 103.147 17.6355 102.953 17.03ZM106.235 15.1034C106.13 14.7775 106.311 14.4292 106.637 14.3246C106.964 14.2199 107.313 14.4001 107.418 14.726C107.523 15.052 107.343 15.4002 107.016 15.5049C106.952 15.5255 106.889 15.534 106.827 15.534C106.563 15.534 106.319 15.3659 106.235 15.1034ZM102.793 13.8837C102.688 13.5577 102.869 13.2095 103.196 13.1049C103.522 13.0002 103.872 13.1803 103.976 13.5063C104.081 13.8322 103.901 14.1805 103.574 14.2851C103.51 14.3057 103.447 14.3143 103.385 14.3143C103.122 14.3143 102.877 14.1462 102.793 13.8837ZM92.0719 13.6178C91.4165 11.5763 92.5432 9.39075 94.59 8.73714C96.6369 8.08181 98.8283 9.20719 99.4836 11.2487C100.141 13.2901 99.0123 15.4757 96.9655 16.131C96.5698 16.258 96.1708 16.318 95.7769 16.318C94.1308 16.3146 92.6017 15.2647 92.0719 13.6178ZM108.37 12.7412C107.712 10.6997 108.841 8.51412 110.888 7.86051C112.935 7.20518 115.126 8.33056 115.781 10.372C116.438 12.4135 115.31 14.5991 113.263 15.2527C112.868 15.3796 112.468 15.4397 112.075 15.4397C110.428 15.438 108.899 14.3881 108.37 12.7412ZM99.9102 8.5227C99.2549 6.48123 100.382 4.29566 102.428 3.64205C104.475 2.98672 106.667 4.1121 107.322 6.15357C107.977 8.19504 106.851 10.3806 104.804 11.0359C104.408 11.1629 104.009 11.2229 103.615 11.2229C101.969 11.2195 100.44 10.1696 99.9102 8.5227ZM99.6264 2.40001C91.7451 4.92011 87.4036 13.3364 89.9304 21.197C92.4572 29.0575 100.896 33.3874 108.777 30.8673C116.659 28.3472 121 19.9309 118.473 12.0704C116.433 5.7264 110.545 1.68292 104.205 1.68292C102.69 1.68121 101.149 1.9128 99.6264 2.40001ZM0 0.0823449V14.0055C1.90584 13.7001 3.83747 13.4136 5.79491 13.1477C5.75535 10.5333 5.70547 8.14186 5.64871 6.21876H5.85684C6.0598 8.03549 6.32125 10.4081 6.60851 13.0379C8.02068 12.8492 9.48274 12.6537 10.919 12.4838C10.4666 8.46266 9.86288 3.92168 9.33482 0.0823449H0ZM14.4159 0.0823449C13.8139 4.39173 13.1086 8.56044 12.5823 12.2745C13.9532 12.1219 15.3396 12.0086 16.7277 11.8731C16.965 9.80762 17.2437 7.89997 17.4105 6.30453H17.586C17.5567 7.79704 17.5309 9.71327 17.5086 11.7993C19.5606 11.6038 21.6299 11.4288 23.7129 11.271V0.0823449H14.4159ZM27.5555 0.0823449V11.0016C29.728 10.8627 31.9107 10.7426 34.1038 10.6431V0.0823449H27.5555ZM38.2406 0.0823449V10.4801C40.4302 10.4063 42.6268 10.3514 44.825 10.3154V0.0823449H38.2406ZM48.7038 0.0823449V10.2725C51.9599 10.2537 55.2159 10.276 58.4583 10.3412C57.4744 6.3114 56.4183 2.0672 55.9005 0.0823449H48.7038ZM60.1973 0.0823449C60.1732 3.52882 60.1904 6.96844 60.2901 10.3806C62.282 10.4304 64.2687 10.4955 66.2467 10.5762L66.2364 0.0823449H60.1973ZM70.2924 0.0823449V10.7632C72.4786 10.8764 74.651 11.0085 76.8045 11.1612V5.18087C79.8129 5.00245 81.1701 5.82247 81.0462 9.19004V11.4888C83.229 11.6707 85.3911 11.8714 87.5257 12.091C87.5446 11.4339 87.5859 10.8095 87.6599 10.2331C88.1346 1.02073 82.4601 0 75.9187 0C74.0731 0 72.1569 0.0806294 70.2924 0.0823449Z" fill="white"/>
</mask>
<g mask="url(#mask0_1_5)">
<path d="M121 0H0V34.1303H121V0Z" fill="url(#paint0_linear_1_5)"/>
</g>
</g>
<defs>
<linearGradient id="paint0_linear_1_5" x1="60.4965" y1="33.8155" x2="60.4965" y2="0.0028941" gradientUnits="userSpaceOnUse">
<stop stop-color="#C1272D"/>
<stop offset="1" stop-color="#ED1C24"/>
</linearGradient>
<clipPath id="clip0_1_5">
<rect width="121" height="58" fill="white"/>
</clipPath>
</defs>
</svg>
